<?xml version="1.0" standalone="no"?><!DOCTYPE svg PUBLIC "-//W3C//DTD SVG 1.1//EN" "http://www.w3.org/Graphics/SVG/1.1/DTD/svg11.dtd"><svg t="1721826750334" class="icon" viewBox="0 0 1024 1024" version="1.1" xmlns="http://www.w3.org/2000/svg" p-id="1552" xmlns:xlink="http://www.w3.org/1999/xlink" width="200" height="200"><path d="M85.333333 512c0 235.648 191.018667 426.666667 426.666667 426.666667 235.52-0.256 426.410667-191.146667 426.666667-426.666667 0-235.648-191.018667-426.666667-426.666667-426.666667S85.333333 276.352 85.333333 512z m85.333334 0a341.333333 341.333333 0 0 1 341.333333-341.333333 341.717333 341.717333 0 0 1 341.333333 341.333333 341.333333 341.333333 0 1 1-682.666666 0z m190.464-150.869333v301.738666h301.738666V577.706667l-155.989333-0.298667 186.154667-186.112-60.373334-60.373333-186.112 186.154666-0.298666-155.989333H361.130667z" p-id="1553" fill="#d81e06"></path></svg>